{%- comment -%}
  Plain Apple mark in currentColor, used only to label the disabled
  "App Store - coming soon" badge.
{%- endcomment -%}
<svg class="ic" viewBox="0 0 24 24" fill="currentColor" aria-hidden="true" focusable="false">
  <path d="M17.05 12.04c-.03-2.62 2.14-3.88 2.24-3.94-1.22-1.79-3.12-2.03-3.8-2.06-1.61-.16-3.15.95-3.97.95-.82 0-2.08-.93-3.42-.9-1.76.03-3.38 1.02-4.29 2.6-1.83 3.17-.47 7.86 1.31 10.43.87 1.26 1.91 2.67 3.27 2.62 1.31-.05 1.81-.85 3.4-.85 1.59 0 2.03.85 3.42.82 1.41-.02 2.31-1.28 3.17-2.55.99-1.46 1.4-2.88 1.42-2.95-.03-.01-2.73-1.05-2.75-4.17z"/>
  <path d="M14.47 4.35c.72-.88 1.21-2.1 1.08-3.32-1.04.04-2.3.69-3.05 1.57-.67.77-1.26 2.01-1.1 3.19 1.16.09 2.35-.59 3.07-1.44z"/>
</svg>
